<?xml version="1.0" standalone="no"?><!DOCTYPE svg PUBLIC "-//W3C//DTD SVG 1.1//EN" "http://www.w3.org/Graphics/SVG/1.1/DTD/svg11.dtd"><svg t="1564112593687" class="icon" viewBox="0 0 1024 1024" version="1.1" xmlns="http://www.w3.org/2000/svg" p-id="17241" xmlns:xlink="http://www.w3.org/1999/xlink" width="200" height="200"><defs><style type="text/css"></style></defs><path d="M555.15361523 34.7322819l367.93145905 204.30816667a81.06499429 81.06499429 0 0 1 41.81247143 70.76425524v404.38023048a81.06499429 81.06499429 0 0 1-41.81247143 70.76425524L555.15361523 989.25735619a82.37544381 82.37544381 0 0 1-79.87644762 0L107.34570857 784.94918953A81.06499429 81.06499429 0 0 1 65.53323809 714.18493429V309.80470381a81.06499429 81.06499429 0 0 1 41.81247048-70.76425524L475.27716761 34.7322819a82.37544381 82.37544381 0 0 1 79.87644762 0z" fill="#4C585E" p-id="17242"></path><path d="M519.28387904 98.57858381a8.35030381 8.35030381 0 0 0-8.10649904 0L143.24592095 302.88675143a7.92364571 7.92364571 0 0 0-4.11420095 6.91795238v404.38023048c0 2.83422762 1.55425334 5.48560095 4.11420095 6.91795333l367.93145905 204.30816666a8.35030381 8.35030381 0 0 0 8.10649904 0l367.93145905-204.30816666a7.92364571 7.92364571 0 0 0 4.11420095-6.91795333V309.80470381a7.92364571 7.92364571 0 0 0-4.11420095-6.91795238L519.28387904 98.57858381zM555.15361523 34.7322819l367.93145905 204.30816667a81.06499429 81.06499429 0 0 1 41.81247143 70.76425524v404.38023048a81.06499429 81.06499429 0 0 1-41.81247143 70.76425524L555.15361523 989.25735619a82.37544381 82.37544381 0 0 1-79.87644762 0L107.34570857 784.94918953A81.06499429 81.06499429 0 0 1 65.53323809 714.18493429V309.80470381a81.06499429 81.06499429 0 0 1 41.81247048-70.76425524L475.27716761 34.7322819a82.37544381 82.37544381 0 0 1 79.87644762 0z" fill="#939FA6" p-id="17243"></path><path d="M748.55153142 304.80671143v63.51107143h-295.55199904V304.80671143h295.55199904z m-209.91567047 239.96457429v32.97455809h113.52146857v-32.97455809h-113.52146857z m0-88.22675143v32.48694857h113.52146857V456.54453429h-113.52146857z m-68.47858762 2.43804476l-38.15540382 17.46249715a453.50683714 453.50683714 0 0 0-13.71400285-43.15339525v311.70404666H349.7788038v-273.39626571c-3.41326286 21.33289333-7.34461048 41.69056857-12.22069999 58.6654562l-55.28266954-19.87006572c10.75787333-32.48694857 19.0777019-87.25153333 22.52144-128.45449333l45.01240477 5.82083238V284.50998762h68.50906381v94.0475838l31.32887715-13.07401618c6.36939239 14.53684286 14.20161143 31.99934 20.54052856 48.48661904v-17.95010571h253.9528581v242.37214381h-253.9528581v-179.34868191z m-27.91561428 203.57675333h308.74791713v64.94342286H442.24165904V662.55933238z" fill="#FFFFFF" p-id="17244"></path></svg>