<?xml version="1.0" encoding="utf-8"?>
<!-- Generator: Adobe Illustrator 15.0.0, SVG Export Plug-In . SVG Version: 6.00 Build 0)  -->
<!DOCTYPE svg PUBLIC "-//W3C//DTD SVG 1.1//EN" "http://www.w3.org/Graphics/SVG/1.1/DTD/svg11.dtd">
<svg version="1.1" id="图层_1" xmlns="http://www.w3.org/2000/svg" xmlns:xlink="http://www.w3.org/1999/xlink" x="0px" y="0px"
	 width="200px" height="200px" viewBox="0 0 200 200" enable-background="new 0 0 200 200" xml:space="preserve">
<path fill="#677F99" d="M107.743,6.889l71.476,39.58c4.97,2.769,8.066,7.997,8.104,13.685v78.634
	c-0.038,5.688-3.135,10.916-8.104,13.685l-71.581,39.789c-4.814,2.66-10.659,2.66-15.474,0l-71.476-39.685
	c-4.969-2.769-8.065-7.995-8.105-13.685V60.153c0.04-5.688,3.136-10.916,8.105-13.685L92.27,6.678
	c4.814-2.661,10.658-2.661,15.474,0V6.889z"/>
<path fill="#95B1CD" d="M100.69,19.205c-0.421-0.316-1.053-0.316-1.474,0L27.636,58.89c-0.421,0.315-0.737,0.842-0.737,1.368v78.529
	c0,0.525,0.316,1.052,0.737,1.369l71.581,39.685c0.421,0.314,1.053,0.314,1.474,0l71.581-39.685
	c0.421-0.317,0.736-0.844,0.736-1.369V60.258c0-0.526-0.315-1.053-0.736-1.368L100.69,19.205z M107.743,6.783l71.476,39.685
	c4.97,2.769,8.066,7.997,8.104,13.685v78.634c-0.038,5.688-3.135,10.916-8.104,13.685l-71.581,39.789
	c-4.814,2.66-10.659,2.66-15.474,0l-71.476-39.685c-4.969-2.769-8.065-7.995-8.105-13.685V60.153
	c0.04-5.688,3.136-10.916,8.105-13.685L92.27,6.678c4.814-2.661,10.658-2.661,15.474,0V6.783z"/>
<path fill="#FFFFFF" d="M105.217,77.732H85.111v-6.316c0-3.488,2.827-6.316,6.315-6.316c0.035,0,0.071,0,0.106,0h12.632
	c2.731-0.065,5.195,1.634,6.104,4.211l-2.947,4.736v-2.631c0-1.744-1.413-3.158-3.157-3.158H91.322
	c-1.744,0-3.158,1.414-3.158,3.158v3.158h18.842L105.217,77.732z"/>
<path fill="#FFFFFF" d="M107.006,74.574l-1.685,3.158H86.9c-0.842,0-2.421,0.737-3.158,1.369L69.005,94.47
	c-0.631,0.631-1.368,2.316-1.368,3.263v11.474c0,0.421,0.526,1.158,1.052,1.369l14.211,5.368c1.263,0.526,3.685,1.052,5.053,1.052
	h20c1.726-0.104,3.428-0.459,5.053-1.052l14.21-5.368c0.422-0.211,1.054-1.054,1.054-1.369V97.733c0-0.947-0.737-2.632-1.368-3.158
	L115.428,82.68c0.421-0.421,1.368-1.369,2.422-2.105l11.157,11.579c1.327,1.526,2.106,3.454,2.211,5.474v11.475
	c0,1.788-1.263,3.684-2.947,4.315l-14.211,5.474c-1.685,0.632-4.422,1.053-6.316,1.053h-20c-1.685,0-4.527-0.421-6.105-1.053
	l-14.316-5.369c-1.708-0.778-2.843-2.441-2.948-4.315V97.733c0-1.79,1.053-4.21,2.21-5.474L81.532,76.89
	c1.47-1.365,3.366-2.183,5.368-2.316H107.006z"/>
<path fill="#FFFFFF" d="M72.164,98.049c-1.744,0-3.158,1.414-3.158,3.158v4.211c0,1.788,1.369,3.789,3.053,4.421l11.474,4.315
	c1.58,0.631,4.422,1.158,6.106,1.158h16.421c1.791,0,4.526-0.527,6.211-1.053l11.474-4.421c1.741-0.797,2.883-2.508,2.948-4.421
	v-4.211c0-1.744-1.415-3.158-3.159-3.158H72.164z"/>
<path fill="#FFFFFF" d="M102.796,100.786h-4.948c6.475-18.525,17.432-35.16,31.896-48.423c2.946-2.737,7.158-4.842,10.525-5.685
	c14.527-3.368,24.002-3.052,33.476-2.842c-1.895,2.105-3.79,4.211-6,6.316c-0.421,0.315-18,2.737-19.686,4.737
	c-1.685,2.105,13.58,0.736,13.054,1.052c-2.37,1.938-4.83,3.765-7.369,5.474c-0.421,0.316-16.527,1.053-18.211,2.842
	c-1.684,1.579,10.632,1.79,10.105,2.105c-7.053,3.79-15.369,6.842-24.632,9.369c-6.105,1.684-11.159,7.579-15.368,17.58
	l-2.843,7.369V100.786z"/>
<path fill="#6C98C4" d="M26.899,118.47c43.686-16.842,92.424-16.842,146.109,0.211v20.106c0,0.525-0.315,1.052-0.736,1.369
	l-71.581,39.685c-0.421,0.314-1.053,0.314-1.474,0l-71.581-39.685c-0.421-0.317-0.737-0.844-0.737-1.369V118.47z M100.164,194.262
	l-0.842,0.421l-1.053-0.525L100.164,194.262z M19.53,151.84l-0.631-0.316v-0.104L19.53,151.84z"/>
<path fill="#FFFFFF" d="M81.743,154.051h-0.631v-0.316l-0.105-0.421c-0.1-0.132-0.255-0.21-0.421-0.21h-2.105l-1.58,9.473
	c0,0.211,0,0.316,0.211,0.422l0.316,0.105h0.421l-0.105,0.632h-5.369v-0.632h0.421l0.421-0.105l0.316-0.422l1.474-9.473H72.9
	c-0.211,0-0.316,0-0.526,0.21l-0.21,0.421v0.316h-0.737l0.315-2.106h10.316l-0.421,2.106H81.743z M87.006,163.735h-5.368v-0.632
	h0.421l0.526-0.105l0.211-0.422l1.579-9.473c0-0.211,0-0.317-0.211-0.422c-0.118-0.094-0.272-0.133-0.421-0.105h-0.315v-0.632h5.474
	v0.632h-0.526l-0.526,0.105l-0.211,0.422l-1.579,9.473c0,0.211,0,0.316,0.21,0.422l0.421,0.105h0.316l-0.105,0.632H87.006z
	 M105.953,163.735h-4.315l1.473-9.053c0.013-0.141,0.013-0.282,0-0.422c0-0.526,0-0.843-0.314-1.053
	c-0.14-0.289-0.418-0.487-0.737-0.526c-0.191,0.021-0.373,0.093-0.526,0.211c-0.21,0-0.315,0.211-0.525,0.315
	c-0.272,0.294-0.455,0.659-0.527,1.053l-1.263,8.315l0.105,0.422l0.421,0.105h0.315v0.632h-5.474v-0.632h0.421l0.526-0.105
	l0.21-0.422l1.368-8.315c0-0.526,0-0.843-0.316-1.053c-0.141-0.289-0.417-0.487-0.736-0.526c-0.228,0-0.45,0.073-0.632,0.211
	l-0.421,0.421l-0.421,0.632l-0.21,0.737l-1.474,9.053h-4.316v-0.632h0.421l0.526-0.105l0.21-0.422l1.579-9.473l-0.211-0.422
	c-0.118-0.094-0.271-0.133-0.421-0.105h-0.21v-0.632h11.579c1.065,0.008,2.127,0.15,3.158,0.422l1.053,0.631l0.315,0.632v0.211
	l-1.368,8.842l0.104,0.422l0.422,0.104h0.315v0.632L105.953,163.735z M117.744,161.63l-0.317,2.105h-10.421l0.106-0.632h0.315
	l0.526-0.105l0.315-0.422l1.474-9.473c0-0.211,0-0.317-0.21-0.422c-0.119-0.094-0.272-0.133-0.422-0.105h-0.315l0.105-0.632h10.422
	l-0.317,2.106h-0.631v-0.316c0-0.211,0-0.316-0.211-0.421c-0.081-0.102-0.19-0.175-0.314-0.21h-4.738l-0.631,3.684l-0.316,2.211
	l-0.631,3.578h4.737c0.21,0,0.314,0,0.525-0.21l0.316-0.422v-0.314H117.744L117.744,161.63z M129.007,161.944
	c0,0.317-0.211,0.527-0.525,0.843l-1.054,0.526l-1.579,0.422c-1.688,0.249-3.409,0.14-5.052-0.317l-0.843-0.525
	c-0.237-0.176-0.39-0.442-0.421-0.737v-0.211l0.21-1.052h3.369v0.842c0,0.421,0,0.737,0.21,1.053
	c0.21,0.211,0.421,0.316,0.737,0.316l0.527-0.105l0.524-0.422l0.422-0.632l0.21-0.842l0.422-2.104
	c-0.55-0.234-1.078-0.517-1.578-0.843c-0.665-0.421-1.371-0.774-2.106-1.053h-1.053l-1.053-0.104l0.632-3.264
	c0-0.316,0.105-0.526,0.421-0.842l1.053-0.526l1.579-0.422c1.688-0.249,3.408-0.141,5.053,0.316l0.947,0.525
	c0.21,0.211,0.315,0.527,0.315,0.737v0.105l-0.21,1.054h-3.369l0.106-0.632c0-0.422,0-0.843-0.317-1.054
	c-0.175-0.237-0.442-0.39-0.736-0.421c-0.42,0-0.737,0.21-1.052,0.527c-0.335,0.428-0.553,0.936-0.633,1.474l-0.314,2.104
	c0.449,0.324,0.906,0.641,1.368,0.948c1.318,0.73,2.809,1.094,4.315,1.052L129.007,161.944L129.007,161.944z"/>
<path fill="#FFFFFF" d="M111.322,158.472h5.474l-0.315,1.052h-5.264L111.322,158.472z M111.322,156.366h6l-0.315,1.053h-5.685
	V156.366z"/>
<path fill="#FFFFFF" d="M113.322,142.261c-0.244,0.94-0.714,1.808-1.368,2.526c-0.842,0.737-1.896,1.368-3.158,1.894
	c-3.223,1.09-6.599,1.659-10,1.686H83.111l0.105-1.053c0.105-0.421,0.631-0.843,1.053-0.843c0.555-0.008,1.085-0.234,1.474-0.632
	c0.421-0.314,0.631-0.736,0.737-1.263l1.79-12.316c4.508-0.039,8.93-1.234,12.843-3.473c0.901-0.546,1.813-1.071,2.735-1.58
	c1.414-0.79,2.386-2.188,2.633-3.789l0.737-4.421l0.104-1.685c0-1.579-0.316-2.737-0.842-3.579
	c-0.632-0.842-1.369-1.264-2.315-1.264c-1.055,0-2.001,0.632-2.843,1.79c-0.842,1.158-1.474,2.947-1.895,5.264h-9.474l0.632-3.369
	c0.146-0.976,0.63-1.87,1.369-2.525c0.737-0.737,1.789-1.369,3.053-1.896c1.263-0.525,2.736-1.052,4.421-1.263
	c3.345-0.555,6.759-0.555,10.106,0c1.579,0.211,2.842,0.632,3.999,1.053c1.054,0.527,2.001,1.053,2.632,1.789
	c0.64,0.678,0.948,1.603,0.843,2.527v0.315l-1.474,10.527c-3.789-0.027-7.521,0.914-10.843,2.736
	c-1.765,0.894-3.519,1.806-5.263,2.736c-1.163,0.659-1.944,1.832-2.105,3.158l-0.631,4.211l-0.105,1.579
	c0,3.158,1.053,4.842,2.948,4.842c0.526,0,1.052-0.21,1.58-0.631c0.525-0.316,1.052-0.843,1.474-1.368
	c0.918-1.352,1.496-2.905,1.684-4.526h9.474L113.322,142.261z"/>
</svg>
