<?xml version="1.0" encoding="utf-8"?>
<!-- Generator: Adobe Illustrator 15.0.0, SVG Export Plug-In . SVG Version: 6.00 Build 0)  -->
<!DOCTYPE svg PUBLIC "-//W3C//DTD SVG 1.1//EN" "http://www.w3.org/Graphics/SVG/1.1/DTD/svg11.dtd">
<svg version="1.1" id="图层_1" xmlns="http://www.w3.org/2000/svg" xmlns:xlink="http://www.w3.org/1999/xlink" x="0px" y="0px"
	 width="200px" height="200px" viewBox="0 0 200 200" enable-background="new 0 0 200 200" xml:space="preserve">
<path fill="#677F99" d="M107.743,6.889l71.476,39.58c4.97,2.769,8.066,7.997,8.104,13.685v78.634
	c-0.038,5.688-3.135,10.916-8.104,13.685l-71.581,39.789c-4.814,2.66-10.659,2.66-15.474,0l-71.476-39.685
	c-4.969-2.769-8.065-7.995-8.105-13.685V60.153c0.04-5.688,3.136-10.916,8.105-13.685L92.27,6.678
	c4.814-2.661,10.658-2.661,15.474,0V6.889z"/>
<path fill="#95B1CD" d="M100.69,19.205c-0.421-0.316-1.053-0.316-1.474,0L27.636,58.89c-0.421,0.315-0.737,0.842-0.737,1.368v78.529
	c0,0.525,0.316,1.052,0.737,1.369l71.581,39.685c0.421,0.314,1.053,0.314,1.474,0l71.581-39.685
	c0.421-0.317,0.736-0.844,0.736-1.369V60.258c0-0.526-0.315-1.053-0.736-1.368L100.69,19.205z M107.743,6.783l71.476,39.685
	c4.97,2.769,8.066,7.997,8.104,13.685v78.634c-0.038,5.688-3.135,10.916-8.104,13.685l-71.581,39.789
	c-4.814,2.66-10.659,2.66-15.474,0l-71.476-39.685c-4.969-2.769-8.065-7.995-8.105-13.685V60.153
	c0.04-5.688,3.136-10.916,8.105-13.685L92.27,6.678c4.814-2.661,10.658-2.661,15.474,0V6.783z"/>
<path fill="#FFFFFF" d="M105.217,77.732H85.111v-6.316c0-3.488,2.827-6.316,6.315-6.316c0.035,0,0.071,0,0.106,0h12.632
	c2.731-0.065,5.195,1.634,6.104,4.211l-2.947,4.736v-2.631c0-1.744-1.413-3.158-3.157-3.158H91.322
	c-1.744,0-3.158,1.414-3.158,3.158v3.158h18.842L105.217,77.732z"/>
<path fill="#FFFFFF" d="M107.006,74.574l-1.685,3.158H86.9c-0.842,0-2.421,0.737-3.158,1.369L69.005,94.47
	c-0.631,0.631-1.368,2.316-1.368,3.263v11.474c0,0.421,0.526,1.158,1.052,1.369l14.211,5.368c1.263,0.526,3.685,1.052,5.053,1.052
	h20c1.726-0.104,3.428-0.459,5.053-1.052l14.21-5.368c0.422-0.211,1.054-1.054,1.054-1.369V97.733c0-0.947-0.737-2.632-1.368-3.158
	L115.428,82.68c0.421-0.421,1.368-1.369,2.422-2.105l11.157,11.579c1.327,1.526,2.106,3.454,2.211,5.474v11.475
	c0,1.788-1.263,3.684-2.947,4.315l-14.211,5.474c-1.685,0.632-4.422,1.053-6.316,1.053h-20c-1.685,0-4.527-0.421-6.105-1.053
	l-14.316-5.369c-1.708-0.778-2.843-2.441-2.948-4.315V97.733c0-1.79,1.053-4.21,2.21-5.474L81.532,76.89
	c1.47-1.365,3.366-2.183,5.368-2.316H107.006z"/>
<path fill="#FFFFFF" d="M72.164,98.049c-1.744,0-3.158,1.414-3.158,3.158v4.211c0,1.788,1.369,3.789,3.053,4.421l11.474,4.315
	c1.58,0.631,4.422,1.158,6.106,1.158h16.421c1.791,0,4.526-0.527,6.211-1.053l11.474-4.421c1.741-0.797,2.883-2.508,2.948-4.421
	v-4.211c0-1.744-1.415-3.158-3.159-3.158H72.164z"/>
<path fill="#FFFFFF" d="M102.796,100.786h-4.948c6.475-18.525,17.432-35.16,31.896-48.423c2.946-2.737,7.158-4.842,10.525-5.685
	c14.527-3.368,24.002-3.052,33.476-2.842c-1.895,2.105-3.79,4.211-6,6.316c-0.421,0.315-18,2.737-19.686,4.737
	c-1.685,2.105,13.58,0.736,13.054,1.052c-2.37,1.938-4.83,3.765-7.369,5.474c-0.421,0.316-16.527,1.053-18.211,2.842
	c-1.684,1.579,10.632,1.79,10.105,2.105c-7.053,3.79-15.369,6.842-24.632,9.369c-6.105,1.684-11.159,7.579-15.368,17.58
	l-2.843,7.369V100.786z"/>
<path fill="#6C98C4" d="M26.899,118.47c43.686-16.842,92.424-16.842,146.109,0.211v20.106c0,0.525-0.315,1.052-0.736,1.369
	l-71.581,39.685c-0.421,0.314-1.053,0.314-1.474,0l-71.581-39.685c-0.421-0.317-0.737-0.844-0.737-1.369V118.47z M100.164,194.262
	l-0.842,0.421l-1.053-0.525L100.164,194.262z M19.53,151.84l-0.631-0.316v-0.104L19.53,151.84z"/>
<path fill="#FFFFFF" d="M82.584,154.051h-0.526v-0.737c-0.12-0.167-0.325-0.249-0.526-0.21h-2.105l-1.474,9.473l0.105,0.422
	l0.421,0.105h0.315v0.632h-5.263v-0.632h0.316l0.526-0.105l0.21-0.422l1.579-9.473h-2.105c-0.211,0-0.422,0-0.527,0.21
	c-0.21,0.104-0.21,0.21-0.316,0.421v0.316h-0.631l0.316-2.106h10.21l-0.421,2.106H82.584z M87.848,163.735h-5.369l0.105-0.632H82.9
	l0.526-0.105l0.21-0.422l1.474-9.473l-0.105-0.422c-0.119-0.094-0.272-0.133-0.421-0.105h-0.316v-0.632h5.263v0.632h-0.316
	l-0.526,0.105l-0.21,0.422l-1.474,9.473l0.105,0.422l0.421,0.105h0.316V163.735z M106.48,163.735h-4.422l1.369-9.053
	c0.012-0.141,0.012-0.282,0-0.422c0-0.526,0-0.843-0.211-1.053c-0.122-0.304-0.409-0.509-0.737-0.526
	c-0.191,0.021-0.373,0.093-0.525,0.211c-0.211,0-0.316,0.211-0.527,0.315c-0.272,0.294-0.454,0.659-0.525,1.053l-1.264,8.315
	l0.105,0.422l0.421,0.105h0.316v0.632h-5.369v-0.632h0.421l0.526-0.105l0.21-0.422l1.263-8.315c0-0.526,0-0.843-0.21-1.053
	c-0.159-0.32-0.484-0.523-0.842-0.526c-0.191,0.021-0.374,0.093-0.526,0.211c-0.21,0-0.316,0.211-0.421,0.421l-0.421,0.632
	l-0.21,0.737l-1.263,9.053h-4.316v-0.632h0.421l0.421-0.105l0.316-0.422l1.474-9.473c0-0.211,0-0.317-0.21-0.422
	c-0.092-0.068-0.202-0.105-0.316-0.105h-0.316v-0.632h11.475c1.065,0.004,2.127,0.146,3.157,0.422l0.947,0.631l0.315,0.632v0.211
	l-1.367,8.736c0,0.211,0,0.316,0.21,0.422l0.315,0.105h0.421L106.48,163.735L106.48,163.735z M118.06,161.63l-0.421,2.105h-10.211
	l0.104-0.632h0.317l0.524-0.105l0.211-0.422l1.474-9.473l-0.104-0.422c-0.12-0.094-0.272-0.133-0.421-0.105h-0.316v-0.632h10.316
	l-0.316,2.106h-0.631v-0.316c0-0.211,0-0.316-0.211-0.421c-0.075-0.107-0.188-0.183-0.315-0.21h-4.632l-0.632,3.684l-0.315,2.211
	l-0.526,3.578h4.631c0.105,0,0.316,0,0.422-0.21c0.21-0.104,0.315-0.211,0.315-0.422v-0.314h0.632H118.06z M129.007,161.944
	c0,0.317-0.211,0.527-0.421,0.843l-1.053,0.526l-1.579,0.422c-1.653,0.246-3.339,0.138-4.947-0.317
	c-0.421-0.104-0.737-0.314-0.947-0.525c-0.198-0.194-0.313-0.459-0.316-0.737v-0.211l0.211-1.052h3.368l-0.104,0.842
	c0,0.421,0,0.737,0.21,1.053c0.211,0.211,0.422,0.316,0.736,0.316l0.527-0.105l0.526-0.422l0.421-0.632l0.21-0.842l0.316-2.104
	c-0.515-0.239-1.007-0.521-1.474-0.843c-0.664-0.422-1.369-0.775-2.105-1.053c-0.692-0.142-1.398-0.213-2.106-0.21l0.633-3.158
	c0-0.316,0.21-0.526,0.526-0.842l1.052-0.526l1.474-0.422c1.653-0.246,3.34-0.138,4.949,0.316l0.946,0.525
	c0.21,0.211,0.315,0.527,0.315,0.737v0.105l-0.21,1.054h-3.263v-0.632c0-0.422,0-0.843-0.211-1.054
	c-0.199-0.265-0.511-0.421-0.843-0.421c-0.315,0-0.631,0.21-1.052,0.527c-0.297,0.439-0.478,0.945-0.527,1.474l-0.315,2.104
	c0.449,0.324,0.906,0.641,1.369,0.948c1.262,0.736,2.736,1.052,4.21,1.052L129.007,161.944L129.007,161.944z"/>
<path fill="#FFFFFF" d="M111.533,158.472h5.579l-0.211,1.052h-5.263L111.533,158.472z M111.533,156.366h5.999l-0.315,1.053h-5.578
	L111.533,156.366z"/>
<path fill="#FFFFFF" d="M110.585,147.945H98.27l2.843-19.476l-1.475,0.737l-3.369,1.896c-1.79,1.052-4.21,1.789-7.263,2.526
	c-2.273,0.489-4.514-0.955-5.004-3.229c-0.107-0.495-0.124-1.007-0.049-1.509l2.105-15.053v-0.21c0-0.422-0.21-0.843-0.526-1.159
	c-0.316-0.314-0.631-0.525-1.053-0.525c-0.465,0.003-0.845-0.371-0.849-0.836c0-0.037,0.002-0.075,0.007-0.112v-0.947h12.421
	l-2.526,17.79c-0.127,0.567,0.229,1.131,0.797,1.257c0.311,0.07,0.638-0.005,0.887-0.204c2.145-1.047,4.251-2.171,6.315-3.368
	l2.105-15.475h12.315l-0.104,1.053c0,0.421-0.526,0.843-1.052,0.843c-0.557,0.007-1.085,0.233-1.475,0.631
	c-0.389,0.32-0.65,0.768-0.736,1.264l-4.212,30.316v0.21c0,0.422,0.106,0.842,0.422,1.159c0.315,0.314,0.737,0.525,1.158,0.525
	c0.465-0.004,0.845,0.371,0.849,0.836c0,0.036-0.002,0.074-0.007,0.112L110.585,147.945z"/>
</svg>
